<svg xmlns="http://www.w3.org/2000/svg" version="1.0" width="722.000000pt" height="281.000000pt" viewBox="0 0 722.000000 281.000000" preserveAspectRatio="xMidYMid meet">

<g transform="translate(0.000000,281.000000) scale(0.100000,-0.100000)" fill="#000000" stroke="none">
<path d="M1222 2213 c-44 -37 -51 -75 -52 -267 0 -147 -1 -158 -17 -151 -78 33 -172 55 -231 55 -378 0 -617 -384 -452 -726 70 -144 196 -239 363 -272 71 -14 87 -14 166 0 48 9 113 28 143 43 119 58 219 177 261 309 21 69 22 83 22 506 0 432 0 435 -22 471 -41 65 -124 80 -181 32z m-213 -625 c46 -14 120 -83 142 -133 25 -54 25 -157 0 -210 -41 -88 -143 -155 -236 -155 -104 0 -209 80 -239 181 -20 66 -20 104 0 161 46 136 185 201 333 156z"/>
<path d="M6123 2070 c-202 -53 -358 -241 -423 -510 -76 -313 30 -682 244 -852 51 -41 143 -88 172 -88 18 0 155 207 219 330 77 150 66 174 -134 278 -64 34 -130 76 -148 94 -39 40 -63 104 -63 166 0 125 111 351 263 535 32 39 38 51 26 58 -22 14 -77 10 -156 -11z"/>
<path d="M6397 1952 c-176 -217 -278 -435 -238 -510 6 -12 52 -42 101 -66 229 -115 287 -182 278 -318 -5 -74 -60 -196 -158 -347 -34 -51 -59 -95 -57 -98 7 -6 103 34 149 63 96 61 192 183 244 312 50 125 59 177 59 357 0 148 -3 180 -23 247 -27 91 -69 186 -111 247 -38 57 -128 149 -162 167 -27 13 -28 12 -82 -54z"/>
<path d="M1951 1824 c-250 -85 -387 -334 -326 -593 21 -90 67 -170 136 -239 194 -194 510 -193 705 3 l62 61 39 -80 c56 -116 106 -146 188 -112 39 17 64 50 71 98 5 28 -15 80 -126 323 -72 160 -145 311 -162 337 -41 65 -136 151 -200 181 -116 54 -266 63 -387 21z m235 -229 c61 -18 116 -62 152 -123 23 -40 27 -58 27 -122 0 -64 -4 -82 -27 -122 -71 -120 -208 -166 -335 -113 -45 19 -109 89 -129 140 -11 31 -15 65 -12 113 5 91 41 154 117 199 74 44 128 52 207 28z"/>
<path d="M2883 1829 c-70 -35 -76 -64 -71 -341 5 -220 6 -237 31 -302 45 -121 115 -207 222 -270 74 -45 104 -54 233 -71 82 -10 114 -19 150 -42 60 -36 109 -109 117 -171 15 -117 43 -160 114 -169 76 -10 137 36 142 108 1 19 2 293 1 610 l-2 576 -23 34 c-44 65 -133 72 -188 13 -24 -25 -24 -29 -29 -272 -5 -216 -8 -251 -24 -282 -34 -63 -65 -96 -118 -125 -44 -24 -64 -29 -118 -28 -104 2 -176 43 -228 132 -27 46 -27 46 -32 291 -5 256 -8 273 -52 302 -42 28 -80 30 -125 7z"/>
<path d="M4664 1836 c-17 -8 -40 -26 -52 -41 -21 -27 -22 -37 -22 -265 0 -130 4 -261 10 -290 22 -115 111 -246 210 -310 289 -186 668 -41 765 292 13 47 15 98 13 306 -3 233 -4 251 -23 272 -50 57 -135 58 -186 4 -24 -25 -24 -28 -29 -272 -6 -266 -6 -269 -66 -348 -80 -104 -257 -118 -363 -28 -17 14 -44 47 -59 73 -27 46 -27 46 -32 291 -4 212 -7 250 -22 273 -31 46 -93 65 -144 43z"/>
</g>
</svg>